<?xml version="1.0" encoding="UTF-8" standalone="no"?>
<!-- Created with Inkscape (http://www.inkscape.org/) -->

<svg
   xmlns:dc="http://purl.org/dc/elements/1.1/"
   xmlns:cc="http://creativecommons.org/ns#"
   xmlns:rdf="http://www.w3.org/1999/02/22-rdf-syntax-ns#"
   xmlns:svg="http://www.w3.org/2000/svg"
   xmlns="http://www.w3.org/2000/svg"
   xmlns:xlink="http://www.w3.org/1999/xlink"
   xmlns:sodipodi="http://sodipodi.sourceforge.net/DTD/sodipodi-0.dtd"
   xmlns:inkscape="http://www.inkscape.org/namespaces/inkscape"
   width="59.958675mm"
   height="59.958675mm"
   viewBox="0 0 212.452 212.452"
   id="svg6690"
   version="1.1"
   inkscape:version="0.91 r13725"
   sodipodi:docname="sheep.svg">
  <defs
     id="defs6692">
    <linearGradient
       id="SVGID_21_"
       gradientUnits="userSpaceOnUse"
       x1="176.5818"
       y1="157.6393"
       x2="253.94009"
       y2="292.41809">
      <stop
         offset="0"
         style="stop-color:#000000"
         id="stop358" />
      <stop
         offset="0.0849"
         style="stop-color:#232323;stop-opacity:0.9151"
         id="stop360" />
      <stop
         offset="0.2232"
         style="stop-color:#4B4A4B;stop-opacity:0.7768"
         id="stop362" />
      <stop
         offset="0.3978"
         style="stop-color:#6C6C70;stop-opacity:0.6022"
         id="stop364" />
      <stop
         offset="0.6017"
         style="stop-color:#949296;stop-opacity:0.3983"
         id="stop366" />
      <stop
         offset="0.8275"
         style="stop-color:#C2C2C5;stop-opacity:0.1725"
         id="stop368" />
      <stop
         offset="1"
         style="stop-color:#E6E5E5;stop-opacity:0"
         id="stop370" />
    </linearGradient>
    <clipPath
       id="SVGID_20_">
      <use
         height="100%"
         width="100%"
         y="0"
         x="0"
         style="overflow:visible"
         xlink:href="#SVGID_19_"
         overflow="visible"
         id="use355" />
    </clipPath>
  </defs>
  <sodipodi:namedview
     id="base"
     pagecolor="#ffffff"
     bordercolor="#666666"
     borderopacity="1.0"
     inkscape:pageopacity="0.0"
     inkscape:pageshadow="2"
     inkscape:zoom="0.35"
     inkscape:cx="-365.91686"
     inkscape:cy="71.940288"
     inkscape:document-units="px"
     inkscape:current-layer="layer1"
     showgrid="false"
     fit-margin-top="0"
     fit-margin-left="0"
     fit-margin-right="0"
     fit-margin-bottom="0"
     inkscape:window-width="1855"
     inkscape:window-height="1056"
     inkscape:window-x="65"
     inkscape:window-y="24"
     inkscape:window-maximized="1" />
  <metadata
     id="metadata6695">
    <rdf:RDF>
      <cc:Work
         rdf:about="">
        <dc:format>image/svg+xml</dc:format>
        <dc:type
           rdf:resource="http://purl.org/dc/dcmitype/StillImage" />
        <dc:title></dc:title>
      </cc:Work>
    </rdf:RDF>
  </metadata>
  <g
     inkscape:label="Layer 1"
     inkscape:groupmode="layer"
     id="layer1"
     transform="translate(-213.77401,-391.8505)">
    <g
       transform="translate(165.46201,341.0945)"
       id="g345">
      <circle
         style="fill:#efcf3b"
         cx="154.53799"
         cy="156.98199"
         r="106.226"
         id="circle347" />
      <g
         id="g349">
        <defs
           id="defs351">
          <circle
             id="SVGID_19_"
             cx="154.53799"
             cy="156.98199"
             r="106.226" />
        </defs>
        <clipPath
           id="clipPath6638">
          <use
             height="100%"
             width="100%"
             y="0"
             x="0"
             style="overflow:visible"
             xlink:href="#SVGID_19_"
             overflow="visible"
             id="use6640" />
        </clipPath>
        <linearGradient
           id="linearGradient6642"
           gradientUnits="userSpaceOnUse"
           x1="176.5818"
           y1="157.6393"
           x2="253.94009"
           y2="292.41809">
          <stop
             offset="0"
             style="stop-color:#000000"
             id="stop6644" />
          <stop
             offset="0.0849"
             style="stop-color:#232323;stop-opacity:0.9151"
             id="stop6646" />
          <stop
             offset="0.2232"
             style="stop-color:#4B4A4B;stop-opacity:0.7768"
             id="stop6648" />
          <stop
             offset="0.3978"
             style="stop-color:#6C6C70;stop-opacity:0.6022"
             id="stop6650" />
          <stop
             offset="0.6017"
             style="stop-color:#949296;stop-opacity:0.3983"
             id="stop6652" />
          <stop
             offset="0.8275"
             style="stop-color:#C2C2C5;stop-opacity:0.1725"
             id="stop6654" />
          <stop
             offset="1"
             style="stop-color:#E6E5E5;stop-opacity:0"
             id="stop6656" />
        </linearGradient>
        <path
           style="clip-rule:evenodd;opacity:0.5;fill:url(#SVGID_21_);fill-rule:evenodd"
           inkscape:connector-curvature="0"
           clip-path="url(#SVGID_20_)"
           d="m 174.274,83.751 31.103,31.103 9.98,-8.561 99.569,99.569 c 0,0 -5.314,77.089 -69.912,84.267 -64.599,7.177 -76.081,-4.467 -76.081,-4.467 l -64.175,-60.353 18.771,-65.8 -27.913,-27.913 47.317,-43.236 31.341,-4.609 z"
           id="path372" />
      </g>
      <g
         id="g374">
        <g
           id="g376">
          <path
             style="clip-rule:evenodd;fill:#ffffff;fill-rule:evenodd"
             inkscape:connector-curvature="0"
             d="m 106.075,146.578 c 0.143,-0.969 0.414,-1.907 0.793,-2.796 -2.28,-0.997 -3.061,-6.075 0.794,-6.075 -5.698,-3.748 -1.425,-9.992 2.849,-8.743 0,-3.747 7.123,-4.996 9.972,-1.248 0,-4.605 7.263,-4.965 8.399,-1.08 1.069,-1.275 2.79,-1.989 4.511,-1.486 0,-3.746 7.123,-4.996 9.972,-1.249 0,-4.996 8.548,-4.996 8.548,0 2.549,-2.234 6.111,-1.359 7.967,0.507 1.084,0.238 2.125,0.609 3.079,1.113 1.525,0.21 3.004,0.908 3.982,2.194 0,-4.996 8.548,-4.996 8.548,0 4.059,-3.559 10.688,0.769 8.902,4.423 3.227,1.656 5.764,4.271 6.729,7.16 4.235,-1.819 9.683,2.538 7.13,5.894 4.274,1.249 2.85,7.494 0,7.494 4.168,1.218 2.917,7.185 0.209,7.481 4.017,1.39 2.593,7.427 -0.209,7.427 3.466,1.013 3.184,5.313 1.434,6.902 1.397,2.276 0.051,5.926 -2.127,5.926 4.273,1.249 2.849,7.494 0,7.494 2.483,3.266 -2.608,7.478 -6.786,5.2 -1.626,3.5 -5.645,6.315 -10.248,6.862 0.21,3.317 -5.536,6.362 -9.194,2.086 -1.388,4.859 -9.515,4.99 -9.953,0.392 -0.216,0.114 -0.436,0.219 -0.659,0.321 -0.326,0.314 -0.677,0.576 -1.038,0.79 -1.501,1.955 -4.983,2.968 -7.707,0.639 -0.329,-0.037 -0.654,-0.083 -0.976,-0.14 -1.921,4.371 -9.75,4.165 -9.75,-0.616 -2.677,3.522 -7.874,2.629 -7.304,-0.603 -0.136,-0.137 -0.272,-0.282 -0.405,-0.438 -1.425,4.997 -9.972,4.997 -9.972,0 -2.85,3.748 -8.547,2.499 -7.123,-1.248 -4.273,1.248 -7.123,-3.746 -4.273,-6.245 -1.218,0 -2.175,-1.141 -2.539,-2.447 -2.385,0.403 -4.525,-0.98 -3.589,-3.443 -4.274,1.25 -7.123,-3.746 -4.274,-6.244 -2.849,0 -4.273,-6.246 0,-6.246 -3.299,-2.169 -3.255,-5.177 -1.804,-7.081 -1.004,-1.422 -1.067,-3.401 0.416,-4.702 -2.849,0 -4.272,-6.245 0,-6.245 -5.698,-3.747 -1.424,-9.991 2.85,-8.742 0.001,-1.548 1.218,-2.669 2.846,-3.188 z"
             id="path378" />
        </g>
        <g
           id="g380">
          <path
             style="clip-rule:evenodd;fill:#e2c7c5;fill-rule:evenodd"
             inkscape:connector-curvature="0"
             d="m 121.25,123.75 c -8.271,0.838 -17.201,-7.546 -23.311,-12.533 -2.369,-1.932 -8.818,-10.331 -11.566,-5.382 -5.827,10.496 8.753,27.754 17.496,31.589 4.269,1.874 13.627,-0.144 16.687,-2.88 2.203,-1.97 2.582,-0.963 2.206,-4.691 -0.065,-0.645 -0.842,-5.473 -1.512,-6.103 z"
             id="path382" />
          <path
             style="clip-rule:evenodd;fill:#fefefd;fill-rule:evenodd"
             inkscape:connector-curvature="0"
             d="m 113.872,121.72 c 13.501,-24.254 59.183,-7.247 62.687,16.652 3.61,29.392 -40.393,92.198 -66.385,88.604 -21.937,0.823 -12.312,-72.519 3.698,-105.256 z"
             id="path384" />
          <path
             style="clip-rule:evenodd;fill:#cdaaa9;fill-rule:evenodd"
             inkscape:connector-curvature="0"
             d="m 117.775,127.677 c -8.398,0.15 -11.661,-4.818 -17.497,-8.059 -2.394,-1.33 -12.47,-14.309 -11.535,-5.086 6.44,15.802 16.507,21.563 24.147,20.789 3.575,-0.364 2.409,-7.393 4.885,-7.644 z"
             id="path386" />
          <path
             style="clip-rule:evenodd;fill:#e5e5e5;fill-rule:evenodd"
             inkscape:connector-curvature="0"
             d="m 135.167,130.283 c 13.052,-20.099 51.403,-2.772 53.02,18.021 1.387,25.529 -40.199,77.048 -62.377,72.427 -18.945,-0.578 -6.353,-63.187 9.357,-90.448 z"
             id="path388" />
          <path
             style="clip-rule:evenodd;fill:#ebdbd8;fill-rule:evenodd"
             inkscape:connector-curvature="0"
             d="m 120.754,121.657 c 15.119,-23.28 59.539,-3.211 61.412,20.873 1.606,29.568 -46.561,89.241 -72.248,83.889 -21.944,-0.669 -7.361,-73.185 10.836,-104.762 z"
             id="path390" />
          <path
             style="clip-rule:evenodd;fill:#e6d0cf;fill-rule:evenodd"
             inkscape:connector-curvature="0"
             d="m 167.913,120.602 c 7.86,5.741 16.852,14.752 17.499,23.086 -0.017,38.148 -49.808,88.082 -75.495,82.73 -2.517,-0.077 -4.547,-1.108 -6.152,-2.903 0.52,0.207 1.05,0.398 1.588,0.563 20.135,6.16 45.876,-19.611 57.482,-57.549 5.04,-16.468 6.586,-32.523 5.078,-45.927 z"
             id="path392" />
          <path
             style="clip-rule:evenodd;fill:#ebdbd8;fill-rule:evenodd"
             inkscape:connector-curvature="0"
             d="m 175.343,126.846 c 9.488,0.961 19.733,-8.657 26.744,-14.377 2.716,-2.218 10.116,-11.853 13.269,-6.175 6.686,12.042 -10.042,31.841 -20.072,36.24 -4.898,2.151 -15.632,-0.165 -19.144,-3.303 -2.527,-2.262 -2.964,-1.107 -2.53,-5.383 0.074,-0.739 0.965,-6.278 1.733,-7.002 z"
             id="path394" />
          <path
             style="clip-rule:evenodd;fill:#cdaaa9;fill-rule:evenodd"
             inkscape:connector-curvature="0"
             d="m 179.329,131.351 c 9.635,0.172 13.38,-5.527 20.073,-9.244 2.746,-1.525 14.306,-16.415 13.235,-5.836 -7.391,18.129 -18.939,24.737 -27.703,23.849 -4.101,-0.415 -2.764,-8.482 -5.605,-8.769 z"
             id="path396" />
          <path
             style="clip-rule:evenodd;fill:#bbbcbe;fill-rule:evenodd"
             inkscape:connector-curvature="0"
             d="m 179.547,111.453 c 1.281,0.297 2.359,1.237 2.359,2.819 3.272,-2.923 8.724,0.973 6.543,3.896 3.272,0.974 2.181,5.846 0,5.846 3.272,0.975 2.181,5.846 0,5.846 2.181,2.922 -3.271,6.82 -6.543,2.922 -1.091,3.897 -7.634,3.897 -7.634,0 -2.181,2.922 -6.543,1.948 -5.453,-0.975 -3.272,0.975 -5.453,-2.923 -3.272,-4.871 -0.589,0 -1.099,-0.357 -1.464,-0.875 -1.143,-0.578 -2.248,-1.438 -3.258,-2.643 -2.376,8.494 -16.639,8.494 -16.639,0 -4.755,6.371 -14.262,4.247 -11.885,-2.123 -0.363,0.107 -0.718,0.186 -1.068,0.241 0.583,2.326 -2.345,5.775 -5.951,4.067 0.529,4.023 -5.435,6.857 -6.958,3.305 -0.845,3.609 -5.202,4.61 -5.351,1.475 -2.602,2.305 -6.112,-0.303 -4.886,-3.023 -1.987,0.945 -4.885,-3.024 -1.904,-4.441 -5.117,-0.774 -4.04,-6.632 -0.677,-7.161 -1.142,-2.663 3.446,-5.913 6.579,-4.193 -1.524,-3.553 4.439,-6.387 5.963,-2.835 0.595,-1.319 1.677,-2.087 2.839,-2.401 -0.722,-2.933 0.286,-6.271 4.285,-6.271 -9.51,-6.371 -2.377,-16.988 4.754,-14.865 0,-6.371 11.885,-8.494 16.639,-2.124 0,-8.494 14.262,-8.494 14.262,0 7.132,-6.371 19.017,2.124 14.262,8.494 7.132,2.123 4.755,12.741 0,12.741 3.555,1.063 4.747,4.235 4.458,7.149 z"
             id="path398" />
          <path
             style="clip-rule:evenodd;fill:#f0eff1;fill-rule:evenodd"
             inkscape:connector-curvature="0"
             d="m 179.547,109.714 c 1.281,0.283 2.359,1.176 2.359,2.678 3.272,-2.776 8.724,0.925 6.543,3.703 3.272,0.927 2.181,5.552 0,5.552 3.272,0.926 2.181,5.554 0,5.554 2.181,2.776 -3.271,6.478 -6.543,2.776 -1.091,3.702 -7.634,3.702 -7.634,0 -2.181,2.777 -6.543,1.852 -5.453,-0.924 -3.272,0.924 -5.453,-2.777 -3.272,-4.629 -0.589,0 -1.099,-0.339 -1.464,-0.832 -1.143,-0.547 -2.248,-1.367 -3.258,-2.509 -2.376,8.069 -16.639,8.069 -16.639,0 -4.755,6.052 -14.262,4.034 -11.885,-2.018 -0.363,0.103 -0.718,0.178 -1.068,0.229 0.583,2.211 -2.345,5.486 -5.951,3.863 0.529,3.822 -5.435,6.515 -6.958,3.141 -0.845,3.428 -5.202,4.378 -5.351,1.4 -2.602,2.19 -6.112,-0.287 -4.886,-2.872 -1.987,0.897 -4.885,-2.872 -1.904,-4.218 -5.117,-0.735 -4.04,-6.299 -0.677,-6.802 -1.142,-2.53 3.446,-5.619 6.579,-3.985 -1.524,-3.374 4.439,-6.066 5.963,-2.691 0.595,-1.254 1.677,-1.983 2.839,-2.281 -0.722,-2.787 0.286,-5.956 4.285,-5.956 -9.51,-6.053 -2.377,-16.139 4.754,-14.122 0,-6.051 11.885,-8.069 16.639,-2.018 0,-8.069 14.262,-8.069 14.262,0 7.132,-6.052 19.017,2.018 14.262,8.069 7.132,2.018 4.755,12.105 0,12.105 3.555,1.005 4.747,4.018 4.458,6.787 z"
             id="path400" />
          <path
             style="clip-rule:evenodd;fill:#e5e5e5;fill-rule:evenodd"
             inkscape:connector-curvature="0"
             d="m 142.459,105.14 c -0.261,-2.528 -2.301,-4.208 -4.721,-4.951 5.052,-1.887 7.848,-2.599 12.28,-2.711 4.444,-0.113 7.736,1.679 9.4,2.828 -2.741,1.046 -5.184,2.932 -6.001,4.443 4.555,-1.762 6.605,-2.393 10.131,-2.481 2.32,-0.06 4.191,0.621 5.48,1.306 -0.176,0.221 -0.321,0.44 -0.435,0.651 0.327,-0.127 0.641,-0.248 0.944,-0.363 0.946,0.568 1.46,1.064 1.458,1.042 -0.054,-0.519 -0.183,-1.001 -0.374,-1.447 3.229,-1.183 5.147,-1.638 8.105,-1.713 4.608,-0.118 7.452,2.687 7.445,2.636 -0.259,-2.508 -2.269,-4.182 -4.663,-4.933 -0.693,-4.843 -6.312,-7.885 -11.246,-7.972 -4.728,-0.082 -10.089,2.243 -12.619,4.597 -2.539,-1.977 -6.261,-2.818 -9.503,-2.417 -4.639,0.572 -9.559,3.558 -11.775,6.221 -0.896,-0.141 -1.807,-0.159 -2.67,-0.052 -3.731,0.459 -7.721,3.147 -8.814,5.163 4.555,-1.761 6.605,-2.392 10.132,-2.481 4.606,-0.119 7.451,2.685 7.446,2.634 l 0,0 z m 27.611,-2.658 c -1.614,-2.235 -4.99,-3.251 -7.839,-2.898 -0.611,0.075 -1.228,0.21 -1.839,0.393 -0.379,-1.298 -1.107,-2.409 -2.068,-3.322 5.736,-1.296 8.662,-1.662 13.266,-1.132 3.855,0.445 6.638,2.204 8.272,3.557 -0.826,-0.11 -1.66,-0.119 -2.453,-0.022 -2.713,0.335 -5.566,1.849 -7.339,3.424 z"
             id="path402" />
          <ellipse
             style="clip-rule:evenodd;fill:#ffffff;fill-rule:evenodd"
             transform="matrix(-0.1362,-0.9907,0.9907,-0.1362,35.0199,306.6367)"
             cx="151.186"
             cy="138.052"
             rx="13.712"
             ry="15.198"
             id="ellipse404" />
          <circle
             style="clip-rule:evenodd;fill:#030104;fill-rule:evenodd"
             cx="152.94701"
             cy="142.306"
             r="8.448"
             id="circle406" />
          <circle
             style="clip-rule:evenodd;fill:#ffffff;fill-rule:evenodd"
             cx="150.989"
             cy="138.509"
             r="1.941"
             id="circle408" />
          <path
             style="clip-rule:evenodd;fill:#dfc0c0;fill-rule:evenodd"
             inkscape:connector-curvature="0"
             d="m 133.649,142.049 c -3.535,13.533 26.27,20.977 32.864,6.592 -4.957,0.84 -24.291,0.508 -32.864,-6.592 z"
             id="path410" />
          <ellipse
             style="clip-rule:evenodd;fill:#ffffff;fill-rule:evenodd"
             transform="matrix(0.1363,-0.9907,0.9907,0.1363,-32.6034,234.7938)"
             cx="118.348"
             cy="136.09399"
             rx="12.762"
             ry="14.145"
             id="ellipse412" />
          <circle
             style="clip-rule:evenodd;fill:#030104;fill-rule:evenodd"
             cx="120.376"
             cy="140.485"
             r="7.8629999"
             id="circle414" />
          <circle
             style="clip-rule:evenodd;fill:#ffffff;fill-rule:evenodd"
             cx="122.2"
             cy="136.951"
             r="1.806"
             id="circle416" />
          <path
             style="clip-rule:evenodd;fill:#dfc0c0;fill-rule:evenodd"
             inkscape:connector-curvature="0"
             d="m 134.713,139.813 c 2.776,12.597 -20.646,19.523 -25.829,6.136 3.896,0.782 19.09,0.473 25.829,-6.136 z"
             id="path418" />
          <path
             style="clip-rule:evenodd;fill:#807f7f;fill-rule:evenodd"
             inkscape:connector-curvature="0"
             d="m 149.935,115.548 c 3.614,-0.209 17.754,3.045 20.333,6.532 3.541,4.789 -19.749,-0.95 -21.109,-1.478 -4.598,-1.778 0.308,-5.032 0.776,-5.054 z"
             id="path420" />
          <path
             style="clip-rule:evenodd;fill:#807f7f;fill-rule:evenodd"
             inkscape:connector-curvature="0"
             d="m 122.784,115.422 c -3.356,-0.308 -16.609,2.276 -19.118,5.44 -3.443,4.341 18.398,-0.268 19.682,-0.715 4.332,-1.511 -0.129,-4.691 -0.564,-4.725 z"
             id="path422" />
          <path
             style="clip-rule:evenodd;fill:#a37978;fill-rule:evenodd"
             inkscape:connector-curvature="0"
             d="m 172.482,156.832 c 1.751,8.31 0.752,18.536 -3.024,27.982 -3.372,8.442 -8.969,16.286 -16.807,21.624 L 151.6,206.8 c 6.998,-6.009 12.688,-14.67 15.92,-22.758 3.626,-9.074 4.592,-18.858 2.922,-26.785 l 2.04,-0.425 z"
             id="path424" />
          <path
             style="clip-rule:evenodd;fill:#a37978;fill-rule:evenodd"
             inkscape:connector-curvature="0"
             d="m 165.355,154.384 c -0.05,4.617 10.091,4.613 11.051,-0.521 -1.521,0.667 -7.738,2.109 -11.051,0.521 z"
             id="path426" />
          <path
             style="clip-rule:evenodd;fill:#b18786;fill-rule:evenodd"
             inkscape:connector-curvature="0"
             d="m 107.088,212.509 c 1.767,0 3.21,-1.561 3.21,-3.477 0,-1.917 -1.443,-3.478 -3.21,-3.478 -1.769,0 -3.211,1.561 -3.211,3.478 -10e-4,1.917 1.442,3.477 3.211,3.477 z"
             id="path428" />
          <path
             style="clip-rule:evenodd;fill:#cdaaa9;fill-rule:evenodd"
             inkscape:connector-curvature="0"
             d="m 102.9,210.475 c -1.566,2.307 3.538,5.694 5.735,3.431 -0.987,-0.174 -4.598,-1.525 -5.735,-3.431 z"
             id="path430" />
          <ellipse
             style="clip-rule:evenodd;fill:#b18786;fill-rule:evenodd"
             transform="matrix(0.2835,-0.959,0.959,0.2835,-117.6539,262.1855)"
             cx="116.621"
             cy="209.82401"
             rx="3.4790001"
             ry="3.211"
             id="ellipse432" />
          <path
             style="clip-rule:evenodd;fill:#cdaaa9;fill-rule:evenodd"
             inkscape:connector-curvature="0"
             d="m 120.227,212.394 c 0.848,2.657 -5.005,4.458 -6.472,1.665 0.997,0.114 4.841,-0.16 6.472,-1.665 z"
             id="path434" />
        </g>
      </g>
    </g>
  </g>
</svg>
